<svg aria-hidden="true" style="position: absolute; width: 0; height: 0; overflow: hidden;" version="1.1" xmlns="http://www.w3.org/2000/svg" xmlns:xlink="http://www.w3.org/1999/xlink">
<defs>
<symbol id="icon-account_balance" viewBox="0 0 24 24">
<title>account_balance</title>
<path d="M11.484 0.984l9.516 5.016v2.016h-18.984v-2.016zM15.984 9.984h3v7.031h-3v-7.031zM2.016 21.984v-3h18.984v3h-18.984zM9.984 9.984h3v7.031h-3v-7.031zM3.984 9.984h3v7.031h-3v-7.031z"></path>
</symbol>
<symbol id="icon-account_circle" viewBox="0 0 24 24">
<title>account_circle</title>
<path d="M12 19.219c2.484 0 4.688-1.313 6-3.234-0.047-1.969-4.031-3.094-6-3.094-2.016 0-5.953 1.125-6 3.094 1.313 1.922 3.516 3.234 6 3.234zM12 5.016c-1.641 0-3 1.359-3 3s1.359 3 3 3 3-1.359 3-3-1.359-3-3-3zM12 2.016c5.531 0 9.984 4.453 9.984 9.984s-4.453 9.984-9.984 9.984-9.984-4.453-9.984-9.984 4.453-9.984 9.984-9.984z"></path>
</symbol>
<symbol id="icon-add_location" viewBox="0 0 24 24">
<title>add_location</title>
<path d="M15.984 9.984v-1.969h-3v-3h-1.969v3h-3v1.969h3v3h1.969v-3h3zM12 2.016c3.844 0 6.984 3.141 6.984 6.984 0 5.25-6.984 12.984-6.984 12.984s-6.984-7.734-6.984-12.984c0-3.844 3.141-6.984 6.984-6.984z"></path>
</symbol>
<symbol id="icon-content_paste" viewBox="0 0 24 24">
<title>content_paste</title>
<path d="M18.984 20.016v-16.031h-1.969v3h-10.031v-3h-1.969v16.031h13.969zM12 2.016c-0.563 0-0.984 0.422-0.984 0.984s0.422 0.984 0.984 0.984 0.984-0.422 0.984-0.984-0.422-0.984-0.984-0.984zM18.984 2.016c1.078 0 2.016 0.891 2.016 1.969v16.031c0 1.078-0.938 1.969-2.016 1.969h-13.969c-1.078 0-2.016-0.891-2.016-1.969v-16.031c0-1.078 0.938-1.969 2.016-1.969h4.172c0.422-1.172 1.5-2.016 2.813-2.016s2.391 0.844 2.813 2.016h4.172z"></path>
</symbol>
<symbol id="icon-directions_car" viewBox="0 0 24 24">
<title>directions_car</title>
<path d="M5.016 11.016h13.969l-1.5-4.5h-10.969zM17.484 15.984c0.844 0 1.5-0.656 1.5-1.5s-0.656-1.5-1.5-1.5-1.5 0.656-1.5 1.5 0.656 1.5 1.5 1.5zM6.516 15.984c0.844 0 1.5-0.656 1.5-1.5s-0.656-1.5-1.5-1.5-1.5 0.656-1.5 1.5 0.656 1.5 1.5 1.5zM18.938 6l2.063 6v8.016c0 0.563-0.422 0.984-0.984 0.984h-1.031c-0.563 0-0.984-0.422-0.984-0.984v-1.031h-12v1.031c0 0.563-0.422 0.984-0.984 0.984h-1.031c-0.563 0-0.984-0.422-0.984-0.984v-8.016l2.063-6c0.188-0.609 0.797-0.984 1.453-0.984h10.969c0.656 0 1.266 0.375 1.453 0.984z"></path>
</symbol>
<symbol id="icon-edit_location" viewBox="0 0 24 24">
<title>edit_location</title>
<path d="M14.906 7.547c0.141-0.141 0.141-0.375 0-0.516l-0.938-0.938c-0.141-0.141-0.375-0.141-0.516 0l-0.703 0.703 1.453 1.453zM10.453 12l3.328-3.328-1.453-1.453-3.328 3.328v1.453h1.453zM12 2.016c3.844 0 6.984 3.141 6.984 6.984 0 5.25-6.984 12.984-6.984 12.984s-6.984-7.734-6.984-12.984c0-3.844 3.141-6.984 6.984-6.984z"></path>
</symbol>
<symbol id="icon-flight_takeoff" viewBox="0 0 24 24">
<title>flight_takeoff</title>
<path d="M22.078 9.656c0.188 0.797-0.281 1.594-1.078 1.828-3.224 0.854-6.445 1.711-9.656 2.578l-5.297 1.406-1.594 0.469c-0.879-1.496-1.751-2.999-2.625-4.5l1.453-0.375 1.969 1.5 4.969-1.313-4.125-7.172 1.922-0.516 6.891 6.422 5.344-1.406c0.797-0.234 1.641 0.281 1.828 1.078zM2.484 18.984h19.031v2.016h-19.031v-2.016z"></path>
</symbol>
<symbol id="icon-golf_course" viewBox="0 0 24 24">
<title>golf_course</title>
<path d="M17.016 5.906l-6 3.094v9.047c2.859 0.141 4.969 0.984 4.969 1.969 0 1.078-2.672 1.969-6 1.969s-6-0.891-6-1.969c0-0.75 1.219-1.406 3-1.734v1.734h2.016v-18zM18 19.5c0-0.844 0.656-1.5 1.5-1.5s1.5 0.656 1.5 1.5-0.656 1.5-1.5 1.5-1.5-0.656-1.5-1.5z"></path>
</symbol>
<symbol id="icon-star" viewBox="0 0 24 24">
<title>star</title>
<path d="M12 17.25l-6.188 3.75 1.641-7.031-5.438-4.734 7.172-0.609 2.813-6.609 2.813 6.609 7.172 0.609-5.438 4.734 1.641 7.031z"></path>
</symbol>
<symbol id="icon-highlight_off" viewBox="0 0 24 24">
<title>highlight_off</title>
<path d="M12 20.016c4.406 0 8.016-3.609 8.016-8.016s-3.609-8.016-8.016-8.016-8.016 3.609-8.016 8.016 3.609 8.016 8.016 8.016zM12 2.016c5.531 0 9.984 4.453 9.984 9.984s-4.453 9.984-9.984 9.984-9.984-4.453-9.984-9.984 4.453-9.984 9.984-9.984zM14.578 8.016l1.406 1.406-2.578 2.578 2.578 2.578-1.406 1.406-2.578-2.578-2.578 2.578-1.406-1.406 2.578-2.578-2.578-2.578 1.406-1.406 2.578 2.578z"></path>
</symbol>
<symbol id="icon-home" viewBox="0 0 24 24">
<title>home</title>
<path d="M9.984 20.016h-4.969v-8.016h-3l9.984-9 9.984 9h-3v8.016h-4.969v-6h-4.031v6z"></path>
</symbol>
<symbol id="icon-keyboard_arrow_right" viewBox="0 0 24 24">
<title>keyboard_arrow_right</title>
<path d="M8.578 16.359l4.594-4.594-4.594-4.594 1.406-1.406 6 6-6 6z"></path>
</symbol>
<symbol id="icon-live_help" viewBox="0 0 24 24">
<title>live_help</title>
<path d="M15.047 10.266c0.563-0.563 0.938-1.359 0.938-2.25 0-2.203-1.781-4.031-3.984-4.031s-3.984 1.828-3.984 4.031h1.969c0-1.078 0.938-2.016 2.016-2.016s2.016 0.938 2.016 2.016c0 0.563-0.234 1.031-0.609 1.406l-1.219 1.266c-0.703 0.75-1.172 1.734-1.172 2.813v0.516h1.969c0-1.5 0.469-2.109 1.172-2.859zM12.984 18v-2.016h-1.969v2.016h1.969zM18.984 2.016c1.078 0 2.016 0.891 2.016 1.969v14.016c0 1.078-0.938 2.016-2.016 2.016h-3.984l-3 3-3-3h-3.984c-1.125 0-2.016-0.938-2.016-2.016v-14.016c0-1.078 0.891-1.969 2.016-1.969h13.969z"></path>
</symbol>
<symbol id="icon-map" viewBox="0 0 24 24">
<title>map</title>
<path d="M15 18.984v-11.859l-6-2.109v11.859zM20.484 3c0.281 0 0.516 0.234 0.516 0.516v15.094c0 0.234-0.188 0.422-0.375 0.469l-5.625 1.922-6-2.109-5.344 2.063-0.141 0.047c-0.281 0-0.516-0.234-0.516-0.516v-15.094c0-0.234 0.188-0.422 0.375-0.469l5.625-1.922 6 2.109 5.344-2.063z"></path>
</symbol>
<symbol id="icon-message" viewBox="0 0 24 24">
<title>message</title>
<path d="M18 8.016v-2.016h-12v2.016h12zM18 11.016v-2.016h-12v2.016h12zM18 14.016v-2.016h-12v2.016h12zM20.016 2.016c1.078 0 1.969 0.891 1.969 1.969v12c0 1.078-0.891 2.016-1.969 2.016h-14.016l-3.984 3.984v-18c0-1.078 0.891-1.969 1.969-1.969h16.031z"></path>
</symbol>
<symbol id="icon-person_add" viewBox="0 0 24 24">
<title>person_add</title>
<path d="M15 14.016c2.672 0 8.016 1.313 8.016 3.984v2.016h-16.031v-2.016c0-2.672 5.344-3.984 8.016-3.984zM6 9.984h3v2.016h-3v3h-2.016v-3h-3v-2.016h3v-3h2.016v3zM15 12c-2.203 0-3.984-1.781-3.984-3.984s1.781-4.031 3.984-4.031 3.984 1.828 3.984 4.031-1.781 3.984-3.984 3.984z"></path>
</symbol>
<symbol id="icon-person_pin_circle" viewBox="0 0 24 24">
<title>person_pin_circle</title>
<path d="M12 14.016c1.688 0 3.141-0.844 3.984-2.156 0-1.313-2.672-2.063-3.984-2.063s-3.984 0.75-3.984 2.063c0.844 1.313 2.297 2.156 3.984 2.156zM12 3.984c-1.078 0-2.016 0.938-2.016 2.016 0 1.125 0.938 2.016 2.016 2.016s2.016-0.891 2.016-2.016c0-1.078-0.938-2.016-2.016-2.016zM12 2.016c3.844 0 6.984 3.141 6.984 6.984 0 5.25-6.984 12.984-6.984 12.984s-6.984-7.734-6.984-12.984c0-3.844 3.141-6.984 6.984-6.984z"></path>
</symbol>
<symbol id="icon-playlist_add_check" viewBox="0 0 24 24">
<title>playlist_add_check</title>
<path d="M21.516 11.484l1.5 1.5-6.984 7.031-4.547-4.5 1.5-1.5 3.047 3zM2.016 15.984v-1.969h7.969v1.969h-7.969zM14.016 6v2.016h-12v-2.016h12zM14.016 9.984v2.016h-12v-2.016h12z"></path>
</symbol>
<symbol id="icon-zoom_in" viewBox="0 0 24 24">
<title>zoom_in</title>
<path d="M12 9.984h-2.016v2.016h-0.984v-2.016h-2.016v-0.984h2.016v-2.016h0.984v2.016h2.016v0.984zM9.516 14.016c2.484 0 4.5-2.016 4.5-4.5s-2.016-4.5-4.5-4.5-4.5 2.016-4.5 4.5 2.016 4.5 4.5 4.5zM15.516 14.016l4.969 4.969-1.5 1.5-4.969-4.969v-0.797l-0.281-0.281c-1.125 0.984-2.625 1.547-4.219 1.547-3.609 0-6.516-2.859-6.516-6.469s2.906-6.516 6.516-6.516 6.469 2.906 6.469 6.516c0 1.594-0.563 3.094-1.547 4.219l0.281 0.281h0.797z"></path>
</symbol>
<symbol id="icon-resize-full-screen" viewBox="0 0 20 20">
<title>resize-full-screen</title>
<path d="M6.987 10.987l-2.931 3.031-2.056-2.429v6.411h6.387l-2.43-2.081 3.030-2.932-2-2zM11.613 2l2.43 2.081-3.030 2.932 2 2 2.931-3.031 2.056 2.429v-6.411h-6.387z"></path>
</symbol>
<symbol id="icon-history" viewBox="0 0 34 32">
<title>history</title>
<path d="M20 2c7.732 0 14 6.268 14 14s-6.268 14-14 14v-3c2.938 0 5.701-1.144 7.778-3.222s3.222-4.84 3.222-7.778c0-2.938-1.144-5.701-3.222-7.778s-4.84-3.222-7.778-3.222c-2.938 0-5.701 1.144-7.778 3.222-1.598 1.598-2.643 3.601-3.041 5.778h5.819l-7 8-7-8h5.143c0.971-6.784 6.804-12 13.857-12zM26 14v4h-8v-10h4v6z"></path>
</symbol>
<symbol id="icon-wrench" viewBox="0 0 32 32">
<title>wrench</title>
<path d="M31.342 25.559l-14.392-12.336c0.67-1.259 1.051-2.696 1.051-4.222 0-4.971-4.029-9-9-9-0.909 0-1.787 0.135-2.614 0.386l5.2 5.2c0.778 0.778 0.778 2.051 0 2.828l-3.172 3.172c-0.778 0.778-2.051 0.778-2.828 0l-5.2-5.2c-0.251 0.827-0.386 1.705-0.386 2.614 0 4.971 4.029 9 9 9 1.526 0 2.963-0.38 4.222-1.051l12.336 14.392c0.716 0.835 1.938 0.882 2.716 0.104l3.172-3.172c0.778-0.778 0.731-2-0.104-2.716z"></path>
</symbol>
</defs>
</svg>
